<svg class="svg-light" xmlns="http://www.w3.org/2000/svg" version="1.1" xmlns:xlink="http://www.w3.org/1999/xlink" xmlns:svgjs="http://svgjs.com/svgjs" width="1920" height="1080" preserveAspectRatio="none" viewBox="0 0 1920 1080">
    <g mask="url(&quot;#SvgjsMask1071&quot;)" fill="none">
        <rect width="1920" height="1080" x="0" y="0" fill="rgba(254, 246, 228, 1)"></rect>
        <path d="M0,600.261C113.11,615.351,225.46,561.709,318.816,496.087C409.85,432.097,464.415,334.117,517.64,236.398C574.601,131.82,666.301,24.046,639.069,-91.884C611.775,-208.078,458.685,-239.631,383.959,-332.702C304.827,-431.261,312.74,-616.522,190.886,-650.097C68.391,-683.849,-22.615,-525.514,-140.088,-477.097C-240.649,-435.65,-361.427,-454.51,-446.892,-387.234C-540.189,-313.793,-625.682,-209.334,-630.934,-90.715C-636.125,26.536,-541.742,120.724,-473.613,216.292C-416.829,295.945,-344.449,356.133,-268.463,417.737C-182.668,487.293,-109.478,585.655,0,600.261" fill="#f3d2c1"></path>
        <path d="M1920 1958.85C2082.608 1953.6660000000002 2159.655 1753.21 2290.579 1656.632 2410.329 1568.297 2598.69 1553.442 2655.841 1416.048 2713.078 1278.4470000000001 2588.949 1134.375 2569.266 986.65 2549.293 836.7529999999999 2638.962 657.11 2539.538 543.167 2440.063 429.16499999999996 2250.431 491.41999999999996 2103.9809999999998 453.41999999999996 1963.83 417.05499999999995 1838.694 289.55600000000004 1698.278 324.88300000000004 1557.658 360.26199999999994 1500.233 524.556 1400.999 630.283 1296.711 741.395 1108.917 809.991 1100.173 962.127 1091.287 1116.733 1280.444 1202.9470000000001 1360.467 1335.53 1428.3899999999999 1448.065 1446.112 1582.939 1533.9180000000001 1680.755 1642.056 1801.221 1758.2 1964.009 1920 1958.85" fill="#ffffff"></path>
    </g>
</svg>