<svg xmlns="http://www.w3.org/2000/svg" viewBox="0 0 51.11 70.04"><defs><style>.cls-1{isolation:isolate;}.cls-12,.cls-2{fill:#efd66c;}.cls-2,.cls-3,.cls-4{stroke:#000;stroke-miterlimit:10;stroke-width:0.75px;}.cls-3{fill:#fef6e4;}.cls-4,.cls-5{fill:#7398f5;}.cls-11,.cls-6{mix-blend-mode:overlay;}.cls-6,.cls-9{opacity:0.6;}.cls-7{fill:#a8588b;}.cls-8{fill:#fff;}.cls-9{mix-blend-mode:multiply;}.cls-10{fill:#e06ca1;}</style></defs><g class="cls-1"><g id="Calque_2" data-name="Calque 2"><g id="Calque_1-2" data-name="Calque 1"><path class="cls-2" d="M6.34,21.52V69.38a.28.28,0,0,0,.28.29h-6a.29.29,0,0,1-.28-.29V21.52A21.19,21.19,0,0,1,21.51.38h6A21.2,21.2,0,0,0,6.34,21.52Z"/><path class="cls-3" d="M48.68,21.52V69.38a.29.29,0,0,1-.29.29H6.62a.28.28,0,0,1-.28-.29V21.52A21.2,21.2,0,0,1,27.47.38h.08c.34,0,.67,0,1,0A21.21,21.21,0,0,1,47.84,15.64,20.79,20.79,0,0,1,48.68,21.52Z"/><path class="cls-4" d="M48.68,21.52V58.35c-3.84.36-6.36-.07-11-2-14.31-5.46-19.61-20.2-14.59-34.45C27.47,9.62,50,8.11,48.68,21.52Z"/><path class="cls-5" d="M46.73,56.47C44.55,59.81,52,60,50,56.14"/><path d="M46.41,56.28a2.12,2.12,0,0,0-.36,1.88,1.93,1.93,0,0,0,1.28,1.08,2.75,2.75,0,0,0,3.15-1A2.45,2.45,0,0,0,50.29,56c-.22-.43-.87-.05-.64.38l.12.26c0,.06,0,0,0,0l0,.06.06.15.06.22a.36.36,0,0,1,0,.11s0,0,0,.06,0-.06,0,0a2.8,2.8,0,0,1,0,.41c0-.07,0,0,0,0a.19.19,0,0,1,0,.08,1.27,1.27,0,0,1-.06.18c0-.1,0,0,0,0s0,0,0,.08a1.1,1.1,0,0,0-.09.14c.05-.1,0,0,0,0l-.06.06-.12.11c-.08.07.07,0,0,0l-.06,0-.16.09-.15.07c.12-.05,0,0,0,0l-.1,0-.36.09-.08,0h-.2a2.28,2.28,0,0,1-.37,0h-.11l-.18,0a2.19,2.19,0,0,1-.34-.1c-.1,0,0,0,0,0l-.07,0-.16-.09L47,58.26h0L47,58.2l-.1-.11c0-.05,0,.08,0,0a.43.43,0,0,1,0-.07.25.25,0,0,1,0-.07c0-.05,0-.09,0,0a1.09,1.09,0,0,1-.05-.17s0-.13,0-.05,0,0,0-.06,0-.13,0-.2,0-.06,0,0a.17.17,0,0,1,0-.07.36.36,0,0,1,0-.1,2,2,0,0,1,.07-.23c0-.09,0,0,0-.05l.06-.12.16-.27c.27-.41-.38-.79-.64-.38Z"/><path class="cls-5" d="M46,53.75c-2.38,4.1,6.64,3.84,4.26-.25"/><path d="M45.72,53.56a2.43,2.43,0,0,0-.27,2.27A2.3,2.3,0,0,0,47,57a3.55,3.55,0,0,0,3.8-1.14,2.38,2.38,0,0,0-.17-2.49.37.37,0,0,0-.64.37,2.66,2.66,0,0,1,.23.5,2,2,0,0,1,.07.23l0,.12v.06c0,.08,0,0,0,0s0,.15,0,.23,0,.06,0,.09v0c0,.09,0-.08,0,0s0,.13,0,.19l0,.09c0,.08,0,0,0,0s-.06.11-.1.17l-.06.08h0l-.14.15-.07.06,0,0c-.05,0,0,0,0,0a2.21,2.21,0,0,1-.36.23l-.09,0,0,0s.06,0,0,0l-.22.08a3.45,3.45,0,0,1-.43.12l-.11,0h0l-.25,0h-.45l-.23,0h-.05c-.06,0,.07,0,0,0l-.13,0a3.25,3.25,0,0,1-.42-.11l-.19-.07h0L46.7,56l-.16-.1-.08,0,0,0-.14-.13,0-.06c-.07-.08,0,0,0,0s-.07-.11-.11-.17,0,0,0,0l0-.1,0-.11s0-.12,0,0c0-.08,0-.16,0-.24a.57.57,0,0,0,0-.13c0,.08,0,0,0,0s0-.19.08-.28a3.34,3.34,0,0,1,.25-.56.37.37,0,0,0-.64-.38Z"/><path class="cls-5" d="M48.69,49.39a3.82,3.82,0,0,0-2.6,1C45,51.35,44.86,52,45,52.57c.47,2.15,5.4,1.92,5.74.31a1.31,1.31,0,0,0-.63-1.25,6.76,6.76,0,0,0-2.46-.14"/><path d="M48.69,49a4.28,4.28,0,0,0-4,2.49,2,2,0,0,0,1.15,2.59,5.33,5.33,0,0,0,3.39.27c.91-.22,2-.81,1.81-1.91a1.67,1.67,0,0,0-.61-1,1.93,1.93,0,0,0-1-.31,6.64,6.64,0,0,0-1.94,0c-.47.09-.27.82.2.72h.09l.31,0H49c.5,0,1,0,1.27.52a.86.86,0,0,1,.08.52.57.57,0,0,1-.07.13.64.64,0,0,1-.12.14,2.38,2.38,0,0,1-.94.47,4.81,4.81,0,0,1-2.66,0c-.68-.22-1.34-.73-1.23-1.47a1.9,1.9,0,0,1,.38-.78,4.15,4.15,0,0,1,.93-.94,3.55,3.55,0,0,1,2-.61.38.38,0,0,0,0-.75Z"/><path class="cls-5" d="M46.73,44.84C44.55,48.19,52,48.36,50,44.52"/><path d="M46.41,44.66a2.12,2.12,0,0,0-.36,1.88,2,2,0,0,0,1.28,1.08,2.75,2.75,0,0,0,3.15-1,2.45,2.45,0,0,0-.19-2.33c-.22-.43-.87,0-.64.38l.12.26c0,.06,0,0,0,0l0,.06.06.15.06.22a.36.36,0,0,1,0,.11s0,0,0,.06,0-.06,0,0a2.81,2.81,0,0,1,0,.41c0-.07,0-.05,0,0a.29.29,0,0,1,0,.09,1.27,1.27,0,0,1-.06.18c0-.1,0,0,0,0l0,.08a1.1,1.1,0,0,0-.09.14c.05-.1,0,0,0,0l-.06.07-.12.11c-.08.07.07,0,0,0l-.06,0-.16.1-.15.07c.12-.05,0,0,0,0l-.1,0a2.37,2.37,0,0,1-.36.09H48.6c-.05,0,.1,0,0,0H48.4A2.26,2.26,0,0,1,48,47h-.1c-.1,0,0,0,0,0l-.18,0a2.19,2.19,0,0,1-.34-.1c-.1,0,0,0,0,0l-.07,0-.16-.09L47,46.64h0L47,46.58l-.1-.11s0,.08,0,0a.43.43,0,0,1,0-.07.25.25,0,0,1,0-.07c0-.06,0-.09,0,0a1,1,0,0,1-.05-.18s0-.12,0,0,0,0,0-.06,0-.13,0-.2,0-.06,0,0a.17.17,0,0,1,0-.07.36.36,0,0,1,0-.1,2,2,0,0,1,.07-.23c0-.09,0,0,0,0l.06-.12.16-.28c.27-.4-.38-.78-.64-.37Z"/><path class="cls-5" d="M46,42.13c-2.38,4.1,6.64,3.84,4.26-.25"/><path d="M45.72,41.94a2.43,2.43,0,0,0-.27,2.27A2.33,2.33,0,0,0,47,45.33a3.55,3.55,0,0,0,3.8-1.14,2.4,2.4,0,0,0-.17-2.5.37.37,0,0,0-.64.38,2.66,2.66,0,0,1,.23.5,2,2,0,0,1,.07.23l0,.12V43c0,.07,0,0,0,0s0,.15,0,.22,0,.07,0,.1v.05c0,.09,0-.08,0,0s0,.13,0,.19l0,.09c0,.08,0-.05,0,0s-.06.12-.1.17l-.06.08c0,.05,0,0,0,0l-.14.15-.07.06a.08.08,0,0,0,0,0c-.05,0,0,0,0,0a2.21,2.21,0,0,1-.36.23l-.09,0,0,0s.06,0,0,0l-.22.08a2.26,2.26,0,0,1-.43.11l-.11,0s-.13,0,0,0l-.25,0a3.38,3.38,0,0,1-.45,0l-.23,0h0l-.13,0a3.25,3.25,0,0,1-.42-.11l-.19-.07h0l-.1,0-.16-.1-.08,0,0,0-.14-.13,0-.06c-.07-.08,0,0,0,0l-.11-.18c0-.08,0,0,0,0l0-.1,0-.11s0-.13,0,0c0-.08,0-.16,0-.24a.57.57,0,0,0,0-.13c0,.08,0,0,0-.05s0-.19.08-.28a3.34,3.34,0,0,1,.25-.56.37.37,0,0,0-.64-.38Z"/><path class="cls-5" d="M48.69,37.77a3.82,3.82,0,0,0-2.6.95C45,39.73,44.86,40.38,45,41c.47,2.15,5.4,1.92,5.74.3A1.29,1.29,0,0,0,50.1,40a6.76,6.76,0,0,0-2.46-.14"/><path d="M48.69,37.39a4.27,4.27,0,0,0-2.24.59,4.38,4.38,0,0,0-1.72,1.9,2,2,0,0,0,1.15,2.59,5.33,5.33,0,0,0,3.39.27c.91-.22,2-.81,1.81-1.91a1.67,1.67,0,0,0-.61-1,1.93,1.93,0,0,0-1-.31,6.64,6.64,0,0,0-1.94,0c-.47.09-.27.81.2.72h.09l.31,0c.29,0,.58,0,.86,0,.5,0,1,0,1.27.52a.85.85,0,0,1,.08.52.57.57,0,0,1-.07.13.64.64,0,0,1-.12.14,2.38,2.38,0,0,1-.94.47,4.72,4.72,0,0,1-2.66,0c-.68-.21-1.34-.72-1.23-1.46a1.93,1.93,0,0,1,.38-.79,4.32,4.32,0,0,1,.93-.93,3.55,3.55,0,0,1,2-.61.38.38,0,0,0,0-.75Z"/><path d="M27.32,20.56V22.7a.38.38,0,0,0,.75,0V20.56a.38.38,0,1,0-.75,0Z"/><path d="M28.27,20.56V22.7a.38.38,0,0,0,.75,0V20.56a.39.39,0,0,0-.38-.38.38.38,0,0,0-.37.38Z"/><g class="cls-6"><path class="cls-7" d="M37.12,12.31c-.9.12-1.32,1.22-1.24,2.12a25,25,0,0,1,.45,2.68c0,1.4-1.06,2.76-.65,4.1.31,1,1.31,1.62,1.55,2.62s-.41,2.16,0,3.12,1.8,1.26,2.48,2.13.57,2,1.33,2.68,1.69.52,2.33,1.11.67,1.6,1.3,2.19,1.64.58,2.19,1.23c.31.36.59,1,1,.83a.89.89,0,0,0,.59-.89c-.09-5.22.25-10.44.16-15.67a11.17,11.17,0,0,0-.35-3.11c-.65-2.07-3.15-3.94-5.19-4.69a10.46,10.46,0,0,0-5.42-.57"/></g><path class="cls-8" d="M44,42.93A4.31,4.31,0,0,0,44,44.49a2,2,0,0,0,.86,1.19.5.5,0,0,0,.5-.87l-.06,0s0,0,0,0a.32.32,0,0,1-.1-.1s-.14-.12,0,0l-.06-.08-.07-.13,0-.06s0,0,0,0a.57.57,0,0,1-.08-.26A.5.5,0,0,1,45,44c0-.05,0-.05,0,0a.28.28,0,0,1,0-.09,1.82,1.82,0,0,1,0-.33c0-.23,0-.45,0-.68a.5.5,0,0,0-1,0Z"/><path class="cls-8" d="M43.3,51.48a4.09,4.09,0,0,0,0,1.56,2,2,0,0,0,.81,1.19.51.51,0,0,0,.69-.18.52.52,0,0,0-.18-.69l-.06,0c.06,0,.06,0,0,0a.94.94,0,0,0-.1-.1l0-.05,0,0a.36.36,0,0,0-.07-.1L44.34,53v0l0-.06a2.17,2.17,0,0,1-.07-.24s0-.17,0-.06c0,0,0-.09,0-.14a2.16,2.16,0,0,1,0-.36c0-.22,0-.45.07-.67a.53.53,0,0,0-.15-.36A.52.52,0,0,0,43.8,51a.52.52,0,0,0-.36.14.6.6,0,0,0-.14.36Z"/><path class="cls-8" d="M22.28,32.27a11.57,11.57,0,0,0,.29,5,.5.5,0,0,0,1-.26,10.42,10.42,0,0,1-.3-4.47.52.52,0,0,0-.35-.62.5.5,0,0,0-.61.35Z"/><path class="cls-8" d="M23.08,39.27a5.87,5.87,0,0,0,.61,2.39.5.5,0,1,0,.87-.51,1,1,0,0,1-.12-.25v0l0-.06a.5.5,0,0,1-.05-.13,4.16,4.16,0,0,1-.16-.5c0-.17-.07-.34-.1-.51s0,.08,0,0,0-.11,0-.16a2.45,2.45,0,0,1,0-.27.5.5,0,0,0-1,0Z"/><path class="cls-8" d="M24.28,43a2.23,2.23,0,0,0,.55,1,.51.51,0,0,0,.86-.35.58.58,0,0,0-.15-.36.53.53,0,0,1-.12-.14l.07.1a1.68,1.68,0,0,1-.21-.37l0,.12a1.84,1.84,0,0,1-.09-.25.5.5,0,0,0-.23-.3.5.5,0,0,0-.38,0,.53.53,0,0,0-.3.23.58.58,0,0,0,0,.39Z"/><path class="cls-8" d="M25.94,45.39a.5.5,0,0,0,0-1,.5.5,0,0,0,0,1Z"/><g class="cls-9"><path class="cls-10" d="M47.85,47.53a2.91,2.91,0,0,0,1.56-.27,1.75,1.75,0,0,0,1.07-1.15.59.59,0,0,0,0-.39.53.53,0,0,0-.3-.23.51.51,0,0,0-.62.35.13.13,0,0,1,0,.06s0,.11,0,0,0,0,0,0l0,0c-.05.08,0,0,0,0s0,0,0,0l-.1.1s-.08.05,0,0,0,0,0,0l-.12.07-.14.08a.91.91,0,0,0-.14.07s.09,0,0,0l-.06,0-.15,0-.16,0a.7.7,0,0,0-.14,0s.09,0,0,0h-.22l-.32,0a.46.46,0,0,0-.35.14.49.49,0,0,0-.15.36.51.51,0,0,0,.15.35.56.56,0,0,0,.35.15Z"/></g><g class="cls-9"><path class="cls-10" d="M48.39,42.74a3.29,3.29,0,0,0,1-.19,3.66,3.66,0,0,0,1-.56.51.51,0,0,0-.35-.86.61.61,0,0,0-.36.15c-.07.06.1-.07,0,0l-.06,0-.16.1-.32.16.12-.05a3.17,3.17,0,0,1-.73.2l.13,0-.28,0a.51.51,0,0,0-.5.5.51.51,0,0,0,.5.5Z"/></g><g class="cls-9"><path class="cls-10" d="M48.51,45.24a3,3,0,0,0,2.08-1,.55.55,0,0,0,.15-.36.51.51,0,0,0-.86-.35,2.91,2.91,0,0,1-.3.31s0,0,0,0,.1-.07,0,0l-.09.07-.2.12-.19.09c-.06,0,.1,0,0,0l-.05,0-.1,0a2.33,2.33,0,0,1-.44.1l.13,0-.16,0a.51.51,0,0,0-.5.5.5.5,0,0,0,.5.5Z"/></g><g class="cls-9"><path class="cls-10" d="M47.65,54.3a4.44,4.44,0,0,0,2.71-.79.5.5,0,0,0,.18-.68.49.49,0,0,0-.68-.18,3.6,3.6,0,0,1-.54.31l-.15.07c-.05,0-.05,0,0,0l-.08,0-.29.1-.31.08-.16,0h-.05c-.22,0-.43,0-.64,0a.5.5,0,0,0-.5.5.51.51,0,0,0,.5.5Z"/></g><g class="cls-9"><path class="cls-10" d="M48.07,56.93a2.89,2.89,0,0,0,2.3-.93.49.49,0,0,0,0-.7.5.5,0,0,0-.71,0l-.18.18-.1.08s.11-.08,0,0l0,0-.22.13-.11.06-.06,0c-.05,0,.12,0,0,0a2.72,2.72,0,0,1-.49.13h-.43a.5.5,0,0,0-.5.5.51.51,0,0,0,.5.5Z"/></g><g class="cls-9"><path class="cls-10" d="M48.35,59.2a2.61,2.61,0,0,0,1.83-.83.51.51,0,0,0,0-.7.5.5,0,0,0-.71,0l-.26.24.1-.08a2.31,2.31,0,0,1-.48.28l.12,0a2.72,2.72,0,0,1-.54.15l.13,0h-.19a.51.51,0,0,0-.5.5.5.5,0,0,0,.5.5Z"/></g><g class="cls-11"><path class="cls-12" d="M29,50.62A31,31,0,0,0,45,58.23c.47.08.68-.65.2-.72a30.19,30.19,0,0,1-15.72-7.42c-.36-.32-.89.21-.53.53Z"/></g><g class="cls-11"><path class="cls-12" d="M25.41,19.58a14.92,14.92,0,0,1,8.2-5.65.37.37,0,0,0-.2-.72,15.73,15.73,0,0,0-8.65,6c-.28.39.37.77.65.38Z"/></g><path d="M24.84,14.19a.9.9,0,0,1-.66-.33c-.48-.64-.72-.77-1.32-.77a.84.84,0,0,1-.73-.44.83.83,0,0,1,.06-.82c.37-.5.39-.77.15-1.55a.9.9,0,0,1,.12-.73.82.82,0,0,1,.63-.32.91.91,0,0,1,.53.21c.34-.48.35-.87.14-1.73A.91.91,0,0,1,23.91,7a.8.8,0,0,1,.61-.3.82.82,0,0,1,.69.38c.54.81.85,1,1.57,1.08A.91.91,0,0,1,26.91,8a.82.82,0,0,1,.57-.24.84.84,0,0,1,.72.48c.27.59.41.7.83.79a.81.81,0,0,1,.59.58.82.82,0,0,1-.25.77c-.33.29-.41.45-.37,1.09a.84.84,0,0,1-.21.61.83.83,0,0,1-.57.25.85.85,0,0,1-.72-.49,1.35,1.35,0,0,0-.43-.63l.06.26a.91.91,0,0,1-.14.72.82.82,0,0,1-.62.3h0a.92.92,0,0,1-.69-.38c0-.07-.09-.13-.13-.19a1.51,1.51,0,0,0,0,1.27.86.86,0,0,1-.12.73A.79.79,0,0,1,24.84,14.19Z"/><path class="cls-8" d="M27.52,8.5a1.71,1.71,0,0,0,1.34,1.22s0,0,0,.06a1.73,1.73,0,0,0-.63,1.7c0,.07,0,.08-.07,0a1.72,1.72,0,0,0-1.34-1.22s0,0,0,0a1.73,1.73,0,0,0,.63-1.71C27.44,8.46,27.49,8.44,27.52,8.5Zm-4.46,1.56a2.1,2.1,0,0,1-.26,2.21,0,0,0,0,0,0,.07,2.09,2.09,0,0,1,2,1.07c0,.06.11,0,.08,0a2.15,2.15,0,0,1,.26-2.22s0-.06,0-.06A2.1,2.1,0,0,1,23.14,10C23.09,10,23,10,23.06,10.06Zm1.43-2.53A2.51,2.51,0,0,1,24,10.15a0,0,0,0,0,0,.08,2.53,2.53,0,0,1,2.26,1.43c.05.08.12.05.1-.05A2.52,2.52,0,0,1,26.88,9a0,0,0,0,0,0-.07,2.53,2.53,0,0,1-2.26-1.43C24.53,7.4,24.47,7.43,24.49,7.53Z"/><path d="M26.16,25.32c1.38.39,2.77-.81,4.15-.42.64.19.64-.81,0-1-1.38-.39-2.77.81-4.15.42-.64-.19-.64.81,0,1Z"/></g></g></g></svg>